<svg width="512" height="512" viewBox="0 0 512 512" fill="none" xmlns="http://www.w3.org/2000/svg">
  <path d="M170 164C153 143 150 121 158 100C185 104 200 120 202 148C191 162 181 167 170 164Z" fill="#8CA17A"/>
  <path d="M342 164C359 143 362 121 354 100C327 104 312 120 310 148C321 162 331 167 342 164Z" fill="#8CA17A"/>
  <path d="M202 174C210 192 215 207 218 222" stroke="#C99322" stroke-linecap="round" stroke-width="16"/>
  <path d="M310 174C302 192 297 207 294 222" stroke="#C99322" stroke-linecap="round" stroke-width="16"/>
  <ellipse cx="256" cy="124" rx="30" ry="42" fill="#D9A2A5"/>
  <ellipse cx="214" cy="154" rx="28" ry="40" transform="rotate(-38 214 154)" fill="#D9A2A5"/>
  <ellipse cx="298" cy="154" rx="28" ry="40" transform="rotate(38 298 154)" fill="#D9A2A5"/>
  <ellipse cx="226" cy="198" rx="26" ry="36" transform="rotate(18 226 198)" fill="#D9A2A5"/>
  <ellipse cx="286" cy="198" rx="26" ry="36" transform="rotate(-18 286 198)" fill="#D9A2A5"/>
  <circle cx="256" cy="170" r="24" fill="#FFF9F2"/>
  <circle cx="256" cy="170" r="10" fill="#C99322"/>
  <path d="M142 188L160 170L178 188L160 206Z" fill="#D7AD56" fill-opacity="0.72"/>
  <path d="M334 172L350 156L366 172L350 188Z" fill="#D7AD56" fill-opacity="0.72"/>
  <circle cx="206" cy="302" r="88" fill="none" stroke="#C99322" stroke-width="32"/>
  <circle cx="306" cy="302" r="88" fill="none" stroke="#D7AD56" stroke-width="32"/>
  <path d="M256 392C247 392 237 384 226 374C197 349 180 330 180 304C180 285 194 271 214 271C229 271 242 278 256 295C270 278 283 271 298 271C318 271 332 285 332 304C332 330 315 349 286 374C275 384 265 392 256 392Z" fill="#D28E90"/>
  <path d="M256 368C250 368 243 362 235 355C216 340 206 326 206 309C206 297 216 289 229 289C238 289 247 294 256 306C265 294 274 289 283 289C296 289 306 297 306 309C306 326 296 340 277 355C269 362 262 368 256 368Z" fill="#FFF9F2"/>
</svg>
