<svg width="512" height="512" viewBox="0 0 512 512" fill="none" xmlns="http://www.w3.org/2000/svg">
  <rect width="512" height="512" rx="120" fill="#FFFCF7"/>
  <rect x="40" y="40" width="432" height="432" rx="96" fill="#FFF5E0"/>
  <path d="M256 370C252.654 370 249.544 368.347 245.627 365.586C160.663 305.702 112 261.446 112 192.75C112 140.216 150.598 104 198.992 104C223.401 104 245.669 115.272 256 133.722C266.331 115.272 288.599 104 313.008 104C361.402 104 400 140.216 400 192.75C400 261.446 351.337 305.702 266.373 365.586C262.456 368.347 259.346 370 256 370Z" fill="#D49A1D"/>
  <path d="M256 336C253.488 336 251.205 334.924 248.179 332.84C181.502 286.942 144 252.601 144 198.045C144 157.635 172.887 128 209.698 128C229.312 128 247.357 137.371 256 152.74C264.643 137.371 282.688 128 302.302 128C339.113 128 368 157.635 368 198.045C368 252.601 330.498 286.942 263.821 332.84C260.795 334.924 258.512 336 256 336Z" fill="#F7D589"/>
  <circle cx="201" cy="194" r="22" fill="#FFFCF7"/>
  <circle cx="311" cy="194" r="22" fill="#FFFCF7"/>
</svg>
